<svg id="ico-hh" viewBox="0 0 24 24">
    <path fill-rule="evenodd" clip-rule="evenodd" d="M22.028 8.471c1.326.697 1.864 1.88 1.898 3.27.047 1.943.054 3.886.06 5.83.003.927.006 1.856.014 2.784.002.26-.08.373-.36.369a52.14 52.14 0 00-2.514.004c-.384.012-.436-.155-.434-.477.01-2.142.011-4.285 0-6.427a19.604 19.604 0 00-.093-1.78c-.08-.824-.65-1.386-1.471-1.499-1.705-.234-2.918.804-2.982 2.682a163.706 163.706 0 00-.069 4.84c-.003.693-.006 1.384-.013 2.076v.548h-3.25V3h3.231v6.75l.17-.16c.095-.089.166-.156.237-.225 1.55-1.507 3.748-1.854 5.576-.894zm-10.82 3.04c.08.714.095 1.438.1 2.158.008 1.625.006 3.25.005 4.873l-.001 1.89v.523H8.035a13.56 13.56 0 00-.01-.168c-.008-.12-.016-.238-.017-.356l-.018-2.422c-.012-1.762-.023-3.524-.052-5.286-.018-1.136-.46-1.756-1.299-1.976-1.043-.274-2.213.15-2.749 1.002-.433.689-.532 1.467-.54 2.25-.02 2.165-.021 4.33-.005 6.493.003.397-.105.52-.507.507a53.14 53.14 0 00-1.964-.012c-.274.002-.551.003-.832.003l-.014-.205c-.009-.13-.018-.246-.018-.363v-4.31c0-4.17 0-8.339-.01-12.508-.001-.433.116-.571.556-.555.633.023 1.268.018 1.928.014.279-.002.562-.004.851-.004v6.79c.127-.107.246-.213.36-.316.24-.214.464-.413.71-.58 1.654-1.12 3.381-1.172 5.117-.223 1.078.59 1.554 1.607 1.686 2.78z" fill="currentColor"></path>
</svg>
